# Blender v2.76 (sub 0) OBJ File: 'test_body_aaa_002.blend'
# www.blender.org
body.mtl
o Cube_Cube.002
v 0.000000 -0.800000 0.600000
v 0.000000 0.900000 0.900000
v 0.000000 -0.800000 -0.600000
v 0.000000 0.900000 -0.900000
v 0.000000 1.400000 0.000000
v 0.000000 1.300000 -0.600000
v 0.000000 1.300000 0.600000
v 1.298261 0.700000 0.000000
v 1.298261 0.380000 -0.320000
v 1.298261 1.020000 -0.320000
v 1.298261 1.020000 0.320000
v 1.298261 0.380000 0.320000
v 1.298261 1.180000 0.000000
v 1.298261 0.220000 0.000000
v 1.298261 0.700000 -0.480000
v 1.298261 0.700000 0.480000
v 1.198261 0.300000 -0.400000
v 1.198261 1.100000 -0.400000
v 1.198261 1.100000 0.400000
v 1.198261 0.300000 0.400000
v 1.198261 1.300000 0.000000
v 1.198261 0.100000 0.000000
v 1.198261 0.700000 -0.600000
v 1.198261 0.700000 0.600000
v 0.998261 0.300000 -0.400000
v 0.998261 1.100000 -0.400000
v 0.998261 1.100000 0.400000
v 0.998261 0.300000 0.400000
v 0.998261 1.300000 0.000000
v 0.998261 0.100000 0.000000
v 0.998261 0.700000 -0.600000
v 0.998261 0.700000 0.600000
v 0.998261 0.100000 0.600000
v 0.998261 0.100000 -0.600000
v 0.798261 0.900000 0.900000
v 0.798261 0.900000 -0.900000
v 0.798261 1.400000 0.000000
v 0.798261 1.300000 -0.600000
v 0.798261 1.300000 0.600000
v -1.298261 0.700000 0.000000
v -1.298261 0.380000 -0.320000
v -1.298261 1.020000 -0.320000
v -1.298261 1.020000 0.320000
v -1.298261 0.380000 0.320000
v -1.298261 1.180000 0.000000
v -1.298261 0.220000 0.000000
v -1.298261 0.700000 -0.480000
v -1.298261 0.700000 0.480000
v -1.198261 0.300000 -0.400000
v -1.198261 1.100000 -0.400000
v -1.198261 1.100000 0.400000
v -1.198261 0.300000 0.400000
v -1.198261 1.300000 0.000000
v -1.198261 0.100000 0.000000
v -1.198261 0.700000 -0.600000
v -1.198261 0.700000 0.600000
v -0.998261 0.300000 -0.400000
v -0.998261 1.100000 -0.400000
v -0.998261 1.100000 0.400000
v -0.998261 0.300000 0.400000
v -0.998261 1.300000 0.000000
v -0.998261 0.100000 0.000000
v -0.998261 0.700000 -0.600000
v -0.998261 0.700000 0.600000
v -0.998261 0.100000 0.600000
v -0.998261 0.100000 -0.600000
v -0.798261 0.900000 0.900000
v -0.798261 0.900000 -0.900000
v -0.798261 1.400000 0.000000
v -0.798261 1.300000 -0.600000
v -0.798261 1.300000 0.600000
v -0.998261 1.300000 -0.600000
v 0.998261 1.300000 -0.600000
v -0.998261 1.300000 0.600000
v 0.998261 1.300000 0.600000
v -0.998261 1.400000 0.000000
v 0.998261 1.400000 0.000000
v -0.998261 0.900000 -0.900000
v -0.798261 -0.800000 -0.600000
v -0.998261 0.900000 0.900000
v -0.798261 -0.800000 0.600000
v 0.998261 0.900000 -0.900000
v 0.798261 -0.800000 -0.600000
v 0.998261 0.900000 0.900000
v 0.798261 -0.800000 0.600000
vt 0.813997 0.940553
vt 0.813997 0.851967
vt 0.873055 0.911024
vt 0.703263 0.368860
vt 0.703263 0.331949
vt 0.813997 0.331949
vt 0.813997 0.368860
vt 0.178668 0.814824
vt 0.099433 0.788412
vt 0.178668 0.748795
vt 0.387958 0.553876
vt 0.074212 0.553876
vt 0.074212 0.406552
vt 0.387958 0.406552
vt 0.000390 0.837934
vt 0.000390 0.755398
vt 0.020199 0.762001
vt 0.020199 0.828030
vt 0.273859 0.886536
vt 0.273859 0.812713
vt 0.236948 0.812713
vt 0.236948 0.886536
vt 0.273859 0.738891
vt 0.236948 0.738891
vt 0.198476 0.738891
vt 0.198476 0.821427
vt 0.148955 0.887456
vt 0.066419 0.887456
vt 0.073022 0.867647
vt 0.139051 0.867647
vt 0.813997 0.962700
vt 0.740175 0.925789
vt 0.754939 0.911024
vt 0.311551 0.738891
vt 0.311551 0.812713
vt 0.274639 0.812713
vt 0.274639 0.738891
vt 0.236168 0.812713
vt 0.236168 0.738891
vt 0.199257 0.738891
vt 0.199257 0.812713
vt 0.349242 0.738891
vt 0.349242 0.812713
vt 0.312331 0.812713
vt 0.312331 0.738891
vt 0.236168 0.886536
vt 0.199257 0.886536
vt 0.536383 0.166491
vt 0.536383 0.277224
vt 0.499472 0.240313
vt 0.311551 0.886536
vt 0.274639 0.886536
vt 0.851688 0.646474
vt 0.888600 0.609563
vt 0.962422 0.646474
vt 0.940275 0.851967
vt 0.940275 0.925789
vt 0.903364 0.925789
vt 0.903364 0.851967
vt 0.499472 0.092668
vt 0.536383 0.055757
vt 0.425649 0.055757
vt 0.425649 0.277224
vt 0.388738 0.332591
vt 0.702483 0.055757
vt 0.388738 0.000390
vt 0.702483 0.277224
vt 0.925511 0.701841
vt 0.851688 0.535741
vt 0.851688 0.425007
vt 0.888600 0.461918
vt 0.962422 0.425007
vt 0.536062 0.888600
vt 0.536062 0.962422
vt 0.683386 0.962422
vt 0.683386 0.888600
vt 0.924731 0.184625
vt 0.813997 0.184625
vt 0.813997 0.037301
vt 0.924731 0.037301
vt 0.925511 0.369640
vt 0.833233 0.535741
vt 0.703263 0.184625
vt 0.703263 0.037301
vt 0.000390 0.553876
vt 0.000390 0.406552
vt 0.536062 0.887819
vt 0.683386 0.887819
vt 0.683386 0.666352
vt 0.536062 0.666352
vt 0.314135 0.000390
vt 0.314135 0.037301
vt 0.387958 0.037301
vt 0.387958 0.000390
vt 0.314135 0.184625
vt 0.000390 0.184625
vt 0.000390 0.331949
vt 0.314135 0.331949
vt 0.725410 0.851967
vt 0.902584 0.851967
vt 0.924731 0.331949
vt 0.924731 0.368860
vt 0.000390 0.037301
vt 0.703263 0.851967
vt 0.887819 0.925789
vt 0.350022 0.738891
vt 0.386933 0.738891
vt 0.386933 0.812713
vt 0.350022 0.812713
vt 0.074212 0.738111
vt 0.074212 0.701199
vt 0.387958 0.701199
vt 0.703263 0.000390
vt 0.813997 0.000390
vt 0.314135 0.368860
vt 0.703263 0.801665
vt 0.723072 0.791760
vt 0.723072 0.725732
vt 0.703263 0.719129
vt 0.184946 0.962058
vt 0.170182 0.947294
vt 0.111124 0.976823
vt 0.111124 0.998969
vt 0.037301 0.962058
vt 0.052066 0.947294
vt 0.022537 0.888236
vt 0.000390 0.888236
vt 0.841924 0.831378
vt 0.881541 0.778555
vt 0.802307 0.752143
vt 0.881541 0.712526
vt 0.939041 0.740313
vt 0.939041 0.814135
vt 0.902130 0.814135
vt 0.902130 0.740313
vt 0.775895 0.831378
vt 0.074212 0.369640
vt 0.111124 0.888236
vt 0.851828 0.851186
vt 0.769292 0.851186
vt 0.310770 0.961918
vt 0.310770 0.925007
vt 0.236948 0.925007
vt 0.236948 0.961918
vt 0.901350 0.702621
vt 0.901350 0.785157
vt 0.312331 0.850405
vt 0.312331 0.813493
vt 0.386153 0.813493
vt 0.386153 0.850405
vt 0.310770 0.924227
vt 0.310770 0.887316
vt 0.236948 0.887316
vt 0.236948 0.924227
vt 0.236948 0.999610
vt 0.236948 0.962699
vt 0.310770 0.962699
vt 0.310770 0.999610
vt 0.384593 0.961918
vt 0.384593 0.925007
vt 0.425649 0.610205
vt 0.536383 0.610205
vt 0.499472 0.573294
vt 0.425649 0.388738
vt 0.499472 0.425649
vt 0.536383 0.388738
vt 0.384593 0.924227
vt 0.384593 0.887316
vt 0.536383 0.499472
vt 0.721719 0.646474
vt 0.832453 0.646474
vt 0.758630 0.609563
vt 0.384593 0.962699
vt 0.384593 0.999610
vt 0.902130 0.739533
vt 0.902130 0.702621
vt 0.975952 0.702621
vt 0.975952 0.739533
vt 0.721719 0.535741
vt 0.795541 0.701841
vt 0.702483 0.610205
vt 0.388738 0.665572
vt 0.758630 0.461918
vt 0.721719 0.425007
vt 0.702483 0.388738
vt 0.388738 0.333371
vt 0.832453 0.425007
vt 0.703263 0.535741
vt 0.795541 0.369640
vt 0.924731 0.000390
vt 0.199711 0.888236
vt 0.387958 0.368860
vt 0.387958 0.331949
vt 0.388738 0.888600
vt 0.388738 0.962422
vt 0.388738 0.666352
vt 0.388738 0.887819
vt 0.000390 0.701199
vn 1.000000 0.000000 0.000000
vn 0.000000 0.986400 -0.164400
vn 0.000000 -0.173800 0.984800
vn 0.731700 0.304900 -0.609700
vn 0.000000 -0.894400 0.447200
vn 0.000000 -0.894400 -0.447200
vn 0.731700 -0.304900 0.609700
vn 0.731700 -0.609700 -0.304900
vn 0.731700 0.609700 0.304900
vn 0.000000 0.894400 -0.447200
vn 0.000000 0.447200 -0.894400
vn 0.000000 -0.447200 0.894400
vn 0.000000 -0.447200 -0.894400
vn 0.000000 0.894400 0.447200
vn 0.000000 0.447200 0.894400
vn 0.845000 -0.187800 0.500700
vn 0.845000 -0.187800 -0.500700
vn 0.976200 -0.216900 0.000000
vn 0.000000 0.600000 -0.800000
vn 0.000000 0.986400 0.164400
vn 0.000000 0.600000 0.800000
vn 0.000000 -1.000000 0.000000
vn 0.000000 -0.173800 -0.984800
vn 0.731700 -0.304900 -0.609700
vn 0.731700 -0.609700 0.304900
vn 0.731700 0.304900 0.609700
vn 0.731700 0.609700 -0.304900
vn -0.731700 0.304900 -0.609700
vn -0.731700 0.609700 -0.304900
vn -0.731700 0.304900 0.609700
vn -1.000000 0.000000 0.000000
vn -0.731700 0.609700 0.304900
vn -0.731700 -0.609700 -0.304900
vn -0.731700 -0.304900 0.609700
vn -0.845000 -0.187800 -0.500700
vn -0.976200 -0.216900 0.000000
vn -0.845000 -0.187800 0.500700
vn -0.731700 -0.304900 -0.609700
vn -0.731700 -0.609700 0.304900
usemtl Material
s off
f 13/1/1 8/2/1 10/3/1
f 73/4/2 38/5/2 37/6/2 77/7/2
f 12/8/1 8/9/1 16/10/1
f 1/11/3 2/12/3 67/13/3 81/14/3
f 23/15/4 18/16/4 10/17/4 15/18/4
f 28/19/5 30/20/5 22/21/5 20/22/5
f 30/20/6 25/23/6 17/24/6 22/21/6
f 24/25/7 20/26/7 12/8/7 16/10/7
f 22/27/8 17/28/8 9/29/8 14/30/8
f 21/31/9 19/32/9 11/33/9 13/1/9
f 26/34/10 29/35/10 21/36/10 18/37/10
f 31/38/11 26/39/11 18/40/11 23/41/11
f 32/42/12 28/43/12 20/44/12 24/45/12
f 25/46/13 31/38/13 23/41/13 17/47/13
f 30/48/1 34/49/1 25/50/1
f 29/35/14 27/51/14 19/52/14 21/36/14
f 73/53/1 26/54/1 31/55/1
f 27/56/15 32/57/15 24/58/15 19/59/15
f 30/48/1 28/60/1 33/61/1
f 32/62/1 33/61/1 28/60/1
f 31/63/1 25/50/1 34/49/1
f 34/49/1 82/64/1 31/63/1
f 85/65/16 33/61/16 84/66/16
f 83/67/17 82/64/17 34/49/17
f 73/53/1 31/55/1 82/68/1
f 85/65/18 83/67/18 34/49/18 30/48/18 33/61/18
f 29/69/1 75/70/1 27/71/1
f 29/69/1 26/54/1 73/53/1
f 75/70/1 32/72/1 27/71/1
f 6/73/19 4/74/19 68/75/19 70/76/19
f 33/61/1 32/62/1 84/66/1
f 7/77/20 5/78/20 69/79/20 71/80/20
f 75/70/1 84/81/1 32/72/1
f 73/53/1 77/82/1 75/70/1 29/69/1
f 5/78/2 6/83/2 70/84/2 69/79/2
f 2/12/21 7/85/21 71/86/21 67/13/21
f 1/87/22 81/88/22 79/89/22 3/90/22
f 82/91/19 36/92/19 38/93/19 73/94/19
f 4/95/23 3/96/23 79/97/23 68/98/23
f 17/28/24 23/15/24 15/18/24 9/29/24
f 11/33/1 16/99/1 8/2/1
f 10/3/1 8/2/1 15/100/1
f 20/26/25 22/27/25 14/30/25 12/8/25
f 77/7/20 37/6/20 39/101/20 75/102/20
f 14/30/1 9/29/1 8/9/1
f 9/29/1 15/18/1 8/9/1
f 13/1/1 11/33/1 8/2/1
f 83/103/23 36/92/23 82/91/23
f 19/32/26 24/104/26 16/99/26 11/33/26
f 14/30/1 8/9/1 12/8/1
f 18/105/27 21/31/27 13/1/27 10/3/27
f 75/106/21 39/107/21 35/108/21 84/109/21
f 84/110/3 35/111/3 85/112/3
f 72/113/2 76/114/2 69/79/2 70/84/2
f 79/97/23 78/115/23 68/98/23
f 55/116/28 47/117/28 42/118/28 50/119/28
f 50/120/29 42/121/29 45/122/29 53/123/29
f 51/124/30 43/125/30 48/126/30 56/127/30
f 46/128/31 44/129/31 40/130/31
f 44/129/31 48/131/31 40/130/31
f 74/132/21 80/133/21 67/134/21 71/135/21
f 41/136/31 40/130/31 47/117/31
f 80/137/3 81/14/3 67/13/3
f 45/122/31 42/121/31 40/138/31
f 45/122/31 40/138/31 43/125/31
f 53/123/32 45/122/32 43/125/32 51/124/32
f 54/139/33 46/128/33 41/136/33 49/140/33
f 62/141/6 54/142/6 49/143/6 57/144/6
f 56/145/34 48/131/34 44/129/34 52/146/34
f 64/147/12 56/148/12 52/149/12 60/150/12
f 63/151/11 55/152/11 50/153/11 58/154/11
f 58/155/10 50/156/10 53/157/10 61/158/10
f 60/159/5 52/160/5 54/142/5 62/141/5
f 63/161/31 66/162/31 57/163/31
f 64/164/31 60/165/31 65/166/31
f 57/167/13 49/168/13 55/152/13 63/151/13
f 62/169/31 57/163/31 66/162/31
f 72/170/31 63/171/31 58/172/31
f 61/158/14 53/157/14 51/173/14 59/174/14
f 59/175/15 51/176/15 56/177/15 64/178/15
f 62/169/31 65/166/31 60/165/31
f 61/179/31 72/170/31 58/172/31
f 72/170/31 78/180/31 63/171/31
f 79/181/35 66/162/35 78/182/35
f 66/162/31 63/161/31 78/182/31
f 61/179/31 59/183/31 74/184/31
f 81/185/36 65/166/36 62/169/36 66/162/36 79/181/36
f 81/185/37 80/186/37 65/166/37
f 74/184/31 59/183/31 64/187/31
f 72/170/31 61/179/31 74/184/31 76/188/31
f 74/184/31 64/187/31 80/189/31
f 65/166/31 80/186/31 64/164/31
f 76/114/20 74/190/20 71/80/20 69/79/20
f 43/125/31 40/138/31 48/126/31
f 49/140/38 41/136/38 47/117/38 55/116/38
f 46/128/31 40/130/31 41/136/31
f 42/121/31 47/191/31 40/138/31
f 52/146/39 44/129/39 46/128/39 54/139/39
f 78/115/19 72/192/19 70/193/19 68/98/19
f 6/73/19 38/194/19 36/195/19 4/74/19
f 1/11/3 85/112/3 35/111/3 2/12/3
f 7/77/20 39/101/20 37/6/20 5/78/20
f 1/87/22 3/90/22 83/196/22 85/197/22
f 4/95/23 36/92/23 83/103/23 3/96/23
f 2/12/21 35/111/21 39/198/21 7/85/21
f 5/78/2 37/6/2 38/5/2 6/83/2
