<?xml version="1.0" encoding="UTF-8" standalone="no"?>
<!-- Created with Inkscape (http://www.inkscape.org/) -->

<svg
   xmlns:dc="http://purl.org/dc/elements/1.1/"
   xmlns:cc="http://creativecommons.org/ns#"
   xmlns:rdf="http://www.w3.org/1999/02/22-rdf-syntax-ns#"
   xmlns:svg="http://www.w3.org/2000/svg"
   xmlns="http://www.w3.org/2000/svg"
   xmlns:xlink="http://www.w3.org/1999/xlink"
   xmlns:sodipodi="http://sodipodi.sourceforge.net/DTD/sodipodi-0.dtd"
   xmlns:inkscape="http://www.inkscape.org/namespaces/inkscape"
   width="210mm"
   height="297mm"
   id="svg3559"
   version="1.1"
   inkscape:version="0.47pre4 r22446"
   sodipodi:docname="player001.svg">
  <defs
     id="defs3561">
    <linearGradient
       id="linearGradient3814">
      <stop
         style="stop-color:#000000;stop-opacity:1;"
         offset="0"
         id="stop3816" />
      <stop
         style="stop-color:#000000;stop-opacity:0;"
         offset="1"
         id="stop3818" />
    </linearGradient>
    <linearGradient
       id="linearGradient3806">
      <stop
         style="stop-color:#a5a98a;stop-opacity:1;"
         offset="0"
         id="stop3808" />
      <stop
         style="stop-color:#a5a98a;stop-opacity:0;"
         offset="1"
         id="stop3810" />
    </linearGradient>
    <linearGradient
       id="linearGradient4436">
      <stop
         style="stop-color:#c0c0c0;stop-opacity:1;"
         offset="0"
         id="stop4438" />
      <stop
         style="stop-color:#585858;stop-opacity:1;"
         offset="1"
         id="stop4440" />
    </linearGradient>
    <linearGradient
       id="linearGradient4426">
      <stop
         style="stop-color:#535353;stop-opacity:1;"
         offset="0"
         id="stop4428" />
      <stop
         id="stop4434"
         offset="0.5"
         style="stop-color:#bcbcbc;stop-opacity:1;" />
      <stop
         style="stop-color:#4e4e4e;stop-opacity:1;"
         offset="1"
         id="stop4430" />
    </linearGradient>
    <inkscape:perspective
       sodipodi:type="inkscape:persp3d"
       inkscape:vp_x="0 : 526.18109 : 1"
       inkscape:vp_y="0 : 1000 : 0"
       inkscape:vp_z="744.09448 : 526.18109 : 1"
       inkscape:persp3d-origin="372.04724 : 350.78739 : 1"
       id="perspective3567" />
    <linearGradient
       inkscape:collect="always"
       xlink:href="#linearGradient4426"
       id="linearGradient4432"
       x1="340.91788"
       y1="536.94263"
       x2="359.86581"
       y2="539.24072"
       gradientUnits="userSpaceOnUse" />
    <radialGradient
       inkscape:collect="always"
       xlink:href="#linearGradient4436"
       id="radialGradient4442"
       cx="350.37051"
       cy="549.25037"
       fx="350.37051"
       fy="549.25037"
       r="9.3098396"
       gradientTransform="matrix(0.97803108,0.20845911,-0.22785789,1.0690447,132.84829,-110.96074)"
       gradientUnits="userSpaceOnUse" />
    <filter
       inkscape:collect="always"
       id="filter4488">
      <feGaussianBlur
         inkscape:collect="always"
         stdDeviation="0.19666405"
         id="feGaussianBlur4490" />
    </filter>
    <filter
       inkscape:collect="always"
       id="filter4492"
       x="-0.10470577"
       width="1.2094115"
       y="-0.053939427"
       height="1.1078789">
      <feGaussianBlur
         inkscape:collect="always"
         stdDeviation="0.19666405"
         id="feGaussianBlur4494" />
    </filter>
    <filter
       inkscape:collect="always"
       id="filter4496"
       x="-0.13692328"
       width="1.2738466"
       y="-0.037342664"
       height="1.0746853">
      <feGaussianBlur
         inkscape:collect="always"
         stdDeviation="0.19666405"
         id="feGaussianBlur4498" />
    </filter>
    <filter
       inkscape:collect="always"
       id="filter4500"
       x="-0.1405266"
       width="1.2810532"
       y="-0.057419322"
       height="1.1148386">
      <feGaussianBlur
         inkscape:collect="always"
         stdDeviation="0.19666405"
         id="feGaussianBlur4502" />
    </filter>
    <linearGradient
       inkscape:collect="always"
       xlink:href="#linearGradient3814"
       id="linearGradient3820"
       x1="432.66666"
       y1="512.19073"
       x2="432.66666"
       y2="535.85742"
       gradientUnits="userSpaceOnUse" />
  </defs>
  <sodipodi:namedview
     id="base"
     pagecolor="#ffffff"
     bordercolor="#666666"
     borderopacity="1.0"
     inkscape:pageopacity="0.0"
     inkscape:pageshadow="2"
     inkscape:zoom="0.53033009"
     inkscape:cx="500.02039"
     inkscape:cy="736.73074"
     inkscape:document-units="px"
     inkscape:current-layer="layer1"
     showgrid="false"
     inkscape:window-width="1128"
     inkscape:window-height="818"
     inkscape:window-x="24"
     inkscape:window-y="25"
     inkscape:window-maximized="1" />
  <metadata
     id="metadata3564">
    <rdf:RDF>
      <cc:Work
         rdf:about="">
        <dc:format>image/svg+xml</dc:format>
        <dc:type
           rdf:resource="http://purl.org/dc/dcmitype/StillImage" />
        <dc:title></dc:title>
      </cc:Work>
    </rdf:RDF>
  </metadata>
  <g
     inkscape:label="Capa 1"
     inkscape:groupmode="layer"
     id="layer1">
    <path
       sodipodi:nodetypes="cccccscscscscccsssccccc"
       id="path3718"
       d="m 454.81706,509.49758 0.67721,-2.50667 1.49198,-0.87711 1.06632,-3.53871 0.60197,-4.13844 c 0,0 -0.0581,-3.34125 -1.20392,-3.23551 -1.16611,0.10761 -0.82769,4.51466 -0.82769,4.51466 0,0 0.47589,-5.93979 -0.97818,-5.9443 -1.32646,-0.004 -0.90293,6.69675 -0.90293,6.69675 0,0 0.24484,-6.44249 -1.12867,-6.54626 -1.29716,-0.098 -0.90292,6.17004 -0.90292,6.17004 0,0 -0.0239,-6.49084 -1.50489,-6.17004 -1.54433,0.33451 -0.52672,3.91271 -0.52672,3.91271 l 0,2.78405 -0.37621,1.8811 c 0,0 -1.09847,-0.53145 -1.27916,-1.05342 -0.26876,-0.77639 0.82562,-1.64254 0.52671,-2.40782 -0.22276,-0.57036 -0.39699,-0.72955 -0.97283,-0.52137 -1.34469,0.48614 -1.12867,3.81921 -1.12867,3.81921 l 1.49954,2.64647 1.73062,0.60196 -0.30097,3.16026 4.43941,0.75244 z"
       style="fill:#afaa6f;fill-opacity:1;stroke:#000000;stroke-width:0.85129339px;stroke-linecap:butt;stroke-linejoin:miter;stroke-opacity:1" />
    <path
       style="fill:#afaa6f;fill-opacity:1;stroke:#000000;stroke-width:0.8942067px;stroke-linecap:butt;stroke-linejoin:miter;stroke-opacity:1"
       d="m 411.05553,512.89915 -0.71134,-2.63303 -1.56719,-0.92132 -1.12008,-3.7171 -0.63231,-4.34705 c 0,0 0.061,-1.21158 1.26461,-1.10051 1.22489,0.11303 0.86941,2.44414 0.86941,2.44414 0,0 -0.49988,-3.94112 1.02749,-3.94585 1.39333,-0.004 0.94845,4.73623 0.94845,4.73623 0,0 -0.25719,-4.46915 1.18556,-4.57816 1.36255,-0.10296 0.94844,4.18297 0.94844,4.18297 0,0 0.0251,-4.51994 1.58075,-4.18297 1.62218,0.35138 0.55327,1.81185 0.55327,1.81185 l 0,2.92439 0.39518,1.97593 c -0.67978,-2.20885 0.44043,-4.99935 2.2907,0.005 l -0.86802,2.6031 -1.81786,0.6323 0.31614,3.31957 -4.6632,0.79037 z"
       id="path3703"
       sodipodi:nodetypes="cccccscscscscccccccc" />
    <path
       style="fill:#ffb380;stroke:#000000;stroke-width:1px;stroke-linecap:butt;stroke-linejoin:miter;stroke-opacity:1"
       d="m 347.23215,519.95147 c 0.57026,1.84856 4.01378,4.61069 5,2.94643 0,0 1.17527,-1.51165 1.42857,-2.41072 1.13003,-4.01094 0.17857,-12.5 0.17857,-12.5 l -2.1875,2.09821 2.45536,-3.16964 -1.07143,-2.23214 c 0,0 -1.65117,1.20386 -2.32143,1.96429 -0.93886,1.06516 -1.94517,2.20232 -2.32143,3.57142 -0.59198,2.15406 0.71152,4.507 0.26786,6.69643 -0.22211,1.09608 -1.75824,1.96706 -1.42857,3.03572 z"
       id="path4403"
       sodipodi:nodetypes="cssccccssss"
       inkscape:export-filename="/media/sda2/zoombeer/path4502.png"
       inkscape:export-xdpi="135.70589"
       inkscape:export-ydpi="135.70589" />
    <rect
       y="500.66574"
       x="352.94647"
       height="14.017858"
       width="3.8392856"
       id="rect4393"
       style="fill:#000000;fill-opacity:1;stroke:#000000;stroke-width:1;stroke-linejoin:round;stroke-miterlimit:4;stroke-opacity:1;stroke-dasharray:none"
       inkscape:export-filename="/media/sda2/zoombeer/path4502.png"
       inkscape:export-xdpi="135.70589"
       inkscape:export-ydpi="135.70589" />
    <rect
       y="501.64789"
       x="354.01788"
       height="11.696428"
       width="1.7857143"
       id="rect4395"
       style="fill:#999999;fill-opacity:1;stroke:#000000;stroke-width:1;stroke-linejoin:round;stroke-miterlimit:4;stroke-opacity:1;stroke-dasharray:none"
       inkscape:export-filename="/media/sda2/zoombeer/path4502.png"
       inkscape:export-xdpi="135.70589"
       inkscape:export-ydpi="135.70589" />
    <rect
       y="497.3623"
       x="352.86353"
       height="5.6820111"
       width="4.1071472"
       id="rect4397"
       style="fill:#999999;fill-opacity:1;stroke:#000000;stroke-width:1;stroke-linejoin:round;stroke-miterlimit:4;stroke-opacity:1;stroke-dasharray:none"
       inkscape:export-filename="/media/sda2/zoombeer/path4502.png"
       inkscape:export-xdpi="135.70589"
       inkscape:export-ydpi="135.70589" />
    <path
       sodipodi:nodetypes="cssssssssccccc"
       id="path4399"
       d="m 350.80722,514.93226 c -0.34022,0.97437 -0.004,2.00908 -0.0631,2.96732 -0.0555,0.90616 1.17221,1.43791 1.95717,1.89404 0.4549,0.26434 1.32637,-0.0491 1.51523,0.44194 l 0.63134,1.6415 c 0.55525,1.44366 3.58853,0.0627 4.48255,-1.19956 0.3172,-0.44783 -0.17015,-1.09447 -0.12627,-1.6415 0.15059,-1.87745 1.14025,-2.79245 1.2627,-4.67195 0.077,-1.18275 -0.67382,-4.7461 -1.19956,-5.80837 -0.48863,-0.98729 -1.51523,-0.82076 -1.51523,-0.82076 l -0.25254,8.71257 -4.60882,0.1894 c 0,0 0.78605,-2.49651 0.0631,-3.34613 -1.18535,-0.0494 -1.1295,-0.08 -2.14653,1.6415 z"
       style="fill:#ffb380;stroke:#000000;stroke-width:1px;stroke-linecap:butt;stroke-linejoin:miter;stroke-opacity:1"
       inkscape:export-filename="/media/sda2/zoombeer/path4502.png"
       inkscape:export-xdpi="135.70589"
       inkscape:export-ydpi="135.70589" />
    <path
       style="fill:#000000;fill-opacity:1;stroke:none;stroke-width:1;stroke-linejoin:miter;stroke-miterlimit:4;stroke-opacity:1"
       d="m 346.76593,516.90476 c -4.21871,4.56895 -5.40527,9.1379 -7.93557,13.70685 -5.32332,4.66174 -9.35072,5.39637 -12.58036,12.45089 -1.87971,1.98371 -2.03125,4.38978 -2.03125,6.09375 0,2.71211 0.39068,5.16017 7.5,6.9375 7.10931,1.77733 4.9328,2.875 15.78125,2.875 10.84845,0 8.67194,-1.09767 15.78125,-2.875 7.10932,-1.77733 7.5,-4.22539 7.5,-6.9375 0,-1.23451 -0.71495,-5.86555 -2.48525,-6.52157 -1.0432,-4.62998 -1.99174,-8.372 -4.77556,-10.41907 0.47457,-2.41361 -0.98552,-12.35684 -1.73722,-12.8305 -2.42707,-1.52934 -5.52284,1.77258 -8.24143,3.00256 0.01,3.1178 0.30553,6.17472 1.17696,8.6481 -0.38345,4.63974 0.77846,6.5915 0.81542,8.05116 l -6.90076,-4.92936 c 2.88417,-3.11917 3.15859,-5.09192 5.07383,-12.08684 -2.1793,-2.12539 -4.13352,-4.92602 -6.94131,-5.16592 l 0,-5e-5 z"
       id="path4351"
       sodipodi:nodetypes="cccsssssccsccccccc"
       inkscape:export-filename="/media/sda2/zoombeer/path4502.png"
       inkscape:export-xdpi="135.70589"
       inkscape:export-ydpi="135.70589" />
    <path
       sodipodi:nodetypes="ccsssssccsccccccc"
       id="path4444"
       d="m 339.45536,531.48661 c -5.32332,4.66174 -9.10072,4.83387 -12.33036,11.88839 -1.87971,1.98371 -1.21875,3.63978 -1.21875,5.34375 0,2.71211 -0.23432,4.22267 6.875,6 7.10931,1.77733 4.3078,2.9375 15.15625,2.9375 10.84845,0 7.73444,-0.53517 14.84375,-2.3125 7.10932,-1.77733 6,-3.28789 6,-6 0,-1.23451 -0.46495,-5.67805 -2.23525,-6.33407 -1.0432,-4.62998 -1.24174,-8.247 -4.02556,-10.29407 0.47457,-2.41361 -0.61052,-11.85684 -1.36222,-12.3305 -2.42707,-1.52934 -3.52284,1.33508 -6.24143,2.56506 0.01,3.1178 -0.19447,5.73722 0.67696,8.2106 -0.38345,4.63974 0.59096,6.4665 0.62792,7.92616 l -8.77576,-4.92936 c 2.88417,-3.11917 1.90859,-5.52942 5.19883,-11.77434 -2.1793,-2.12539 -3.07102,-4.11352 -5.87881,-4.35342 -0.73979,4.66514 -4.94585,8.82438 -7.31057,13.4568 z"
       style="fill:#627988;fill-opacity:1;stroke:none;stroke-width:1;stroke-linejoin:miter;stroke-miterlimit:4;stroke-opacity:1"
       inkscape:export-filename="/media/sda2/zoombeer/path4502.png"
       inkscape:export-xdpi="135.70589"
       inkscape:export-ydpi="135.70589" />
    <path
       style="fill:#39464f;stroke:none;stroke-width:1px;stroke-linecap:butt;stroke-linejoin:miter;stroke-opacity:1;fill-opacity:1"
       d="m 347.01265,518.85012 -0.7071,6.71751 -4.5078,5.74524 0.53033,1.67938 -1.50261,-0.17678 -6.01041,2.91682 5.12653,-4.33103 4.15424,-6.27557 2.91682,-6.27557 z"
       id="path4452"
       sodipodi:nodetypes="ccccccccc"
       inkscape:export-filename="/media/sda2/zoombeer/path4502.png"
       inkscape:export-xdpi="135.70589"
       inkscape:export-ydpi="135.70589" />
    <path
       style="fill:#39464f;stroke:none;stroke-width:1px;stroke-linecap:butt;stroke-linejoin:miter;stroke-opacity:1;fill-opacity:1"
       d="m 339.4375,541.61218 -5.375,3.4375 6.1875,1.1875 -0.8125,-4.625 z"
       id="path4448"
       inkscape:export-filename="/media/sda2/zoombeer/path4502.png"
       inkscape:export-xdpi="135.70589"
       inkscape:export-ydpi="135.70589" />
    <path
       style="fill:#39464f;stroke:none;stroke-width:1px;stroke-linecap:butt;stroke-linejoin:miter;stroke-opacity:1;fill-opacity:1"
       d="m 355.32116,523.5347 1.10171,8.52189 -0.65977,7.4764 -0.70711,7.24784 6.28814,-1.53921 -3.27037,-2.2981 0.26517,-8.75044 3.62392,-1.50261 -3.09359,0.35356 -0.88389,-4.94975 -2.66421,-4.55958 z"
       id="path4450"
       sodipodi:nodetypes="ccccccccccc"
       inkscape:export-filename="/media/sda2/zoombeer/path4502.png"
       inkscape:export-xdpi="135.70589"
       inkscape:export-ydpi="135.70589" />
    <path
       style="fill:url(#linearGradient4432);fill-opacity:1;stroke:#000000;stroke-width:1;stroke-miterlimit:4;stroke-opacity:1;stroke-linejoin:round"
       d="m 356.53739,547.6351 c 0,0 -17.50599,0 -17.50599,0 1.18664,0 -2.75331,-16.78871 8.75299,-16.78871 11.5063,0 7.12512,16.78871 8.753,16.78871 z"
       id="path3573"
       sodipodi:nodetypes="cczc"
       inkscape:export-filename="/media/sda2/zoombeer/path4502.png"
       inkscape:export-xdpi="135.70589"
       inkscape:export-ydpi="135.70589" />
    <path
       style="fill:url(#radialGradient4442);fill-opacity:1;stroke:#000000;stroke-width:1.03003906999999995;stroke-miterlimit:4;stroke-opacity:1"
       d="m 356.51368,549.29706 c 0,5.17106 -3.83102,8.91278 -8.79482,9.36303 -4.89896,0.44437 -8.79535,-4.49705 -8.79482,-9.36303 6.6e-4,-6.05751 4.02167,-10.26292 8.79482,-9.36302 6.09468,1.14905 8.79482,4.19197 8.79482,9.36302 z"
       id="path3571"
       sodipodi:nodetypes="csssc"
       inkscape:export-filename="/media/sda2/zoombeer/path4502.png"
       inkscape:export-xdpi="135.70589"
       inkscape:export-ydpi="135.70589" />
    <rect
       style="fill:#999999;fill-opacity:1;stroke:#000000;stroke-width:1;stroke-linejoin:round;stroke-miterlimit:4;stroke-opacity:1;stroke-dasharray:none"
       id="rect4401"
       width="4.1964331"
       height="5.1785712"
       x="352.77423"
       y="511.86575"
       inkscape:export-filename="/media/sda2/zoombeer/path4502.png"
       inkscape:export-xdpi="135.70589"
       inkscape:export-ydpi="135.70589" />
    <path
       style="fill:#39464f;stroke:none;stroke-width:1px;stroke-linecap:butt;stroke-linejoin:miter;stroke-opacity:1;fill-opacity:1"
       d="m 332.94899,537.29892 -2.98102,2.61613 -3.34297,4.94713 -0.125,5.75 4,2.625 -2.10171,-3.16605 0.28033,-4.80178 4.27037,-7.97043 z"
       id="path4454"
       sodipodi:nodetypes="cccccccc"
       inkscape:export-filename="/media/sda2/zoombeer/path4502.png"
       inkscape:export-xdpi="135.70589"
       inkscape:export-ydpi="135.70589" />
    <path
       style="fill:#a6b4bf;stroke:none;stroke-width:1px;stroke-linecap:butt;stroke-linejoin:miter;stroke-opacity:1;fill-opacity:1"
       d="M 357.06434,522.09073 360,520.86218 l 1.125,0.5 0.875,10.625 -2.93566,-9.64645 -2,-0.25 z"
       id="path4456"
       sodipodi:nodetypes="cccccc"
       inkscape:export-filename="/media/sda2/zoombeer/path4502.png"
       inkscape:export-xdpi="135.70589"
       inkscape:export-ydpi="135.70589" />
    <path
       style="fill:#a6b4bf;stroke:none;stroke-width:1px;stroke-linecap:butt;stroke-linejoin:miter;stroke-opacity:1;fill-opacity:1"
       d="m 362.75,533.73718 1.625,4 1.375,4.375 -4.22227,-0.98483 c 0,0 1.5,-0.375 1.375,-1 -0.125,-0.625 -0.15273,-6.26517 -0.15273,-6.39017 z"
       id="path4458"
       sodipodi:nodetypes="ccccsc"
       inkscape:export-filename="/media/sda2/zoombeer/path4502.png"
       inkscape:export-xdpi="135.70589"
       inkscape:export-ydpi="135.70589" />
    <path
       style="fill:#a6b4bf;stroke:none;stroke-width:1px;stroke-linecap:butt;stroke-linejoin:miter;stroke-opacity:1;fill-opacity:1"
       d="m 361.56434,554.84073 5.93566,-2.35355 -0.25,-7.75 c 0,0 -1.35355,5.57322 -1.60355,6.19822 -0.25,0.625 -4.20711,4.28033 -4.08211,3.90533 z"
       id="path4460"
       sodipodi:nodetypes="cccsc"
       inkscape:export-filename="/media/sda2/zoombeer/path4502.png"
       inkscape:export-xdpi="135.70589"
       inkscape:export-ydpi="135.70589" />
    <path
       style="fill:#a6b4bf;stroke:none;stroke-width:1px;stroke-linecap:butt;stroke-linejoin:miter;stroke-opacity:1;fill-opacity:1"
       d="m 348.78042,519.734 2.74004,2.74004 -3.0052,7.24784 0.97227,-6.71751 -0.70711,-3.27037 z"
       id="path4462"
       inkscape:export-filename="/media/sda2/zoombeer/path4502.png"
       inkscape:export-xdpi="135.70589"
       inkscape:export-ydpi="135.70589" />
    <path
       style="fill:#dfdfdf;stroke:none;stroke-width:1px;stroke-linecap:butt;stroke-linejoin:miter;stroke-opacity:1;fill-opacity:1;opacity:0.55769230999999997;filter:url(#filter4488)"
       d="m 349.48753,542.09625 3.18198,4.06586 c 0,0 0.79549,4.50781 0.44194,4.77298 -0.35355,0.26516 -3.0052,5.74524 -3.0052,5.74524 l 4.24264,-3.62392 0.79549,-5.12653 -1.94454,-4.24264 -3.71231,-1.59099 z"
       id="path4464"
       inkscape:export-filename="/media/sda2/zoombeer/path4502.png"
       inkscape:export-xdpi="135.70589"
       inkscape:export-ydpi="135.70589" />
    <path
       style="fill:#dfdfdf;stroke:none;stroke-width:1px;stroke-linecap:butt;stroke-linejoin:miter;stroke-opacity:1;fill-opacity:1;opacity:0.55769230999999997;filter:url(#filter4492)"
       d="m 350.19463,532.6387 3.35876,2.82842 1.14905,5.92202 -2.74004,-1.5026 -1.76777,-7.24784 z"
       id="path4466"
       inkscape:export-filename="/media/sda2/zoombeer/path4502.png"
       inkscape:export-xdpi="135.70589"
       inkscape:export-ydpi="135.70589" />
    <path
       style="fill:#333333;stroke:none;stroke-width:1px;stroke-linecap:butt;stroke-linejoin:miter;stroke-opacity:1;fill-opacity:1;opacity:0.67307691999999997;filter:url(#filter4500)"
       d="m 343.83067,533.08064 -1.85615,2.82843 -1.5026,5.39169 c 0,0 1.76776,-0.7955 1.76776,-1.23744 0,-0.44194 1.5026,-6.8059 1.59099,-6.98268 z"
       id="path4468"
       inkscape:export-filename="/media/sda2/zoombeer/path4502.png"
       inkscape:export-xdpi="135.70589"
       inkscape:export-ydpi="135.70589" />
    <path
       style="fill:#333333;stroke:none;stroke-width:1px;stroke-linecap:butt;stroke-linejoin:miter;stroke-opacity:1;fill-opacity:1;opacity:0.67307691999999997;filter:url(#filter4496)"
       d="m 343.30034,542.27303 c 0,0 -2.20971,2.56326 -2.38648,2.91681 -0.17678,0.35356 -1.06066,4.33103 -1.06066,4.33103 l 2.12132,5.39169 -1.06066,-5.65685 0.61872,-3.53554 1.76776,-3.44714 z"
       id="path4470"
       inkscape:export-filename="/media/sda2/zoombeer/path4502.png"
       inkscape:export-xdpi="135.70589"
       inkscape:export-ydpi="135.70589" />
    <path
       style="fill:#000000;stroke:none;stroke-width:1px;stroke-linecap:butt;stroke-linejoin:miter;stroke-opacity:1;fill-opacity:1;opacity:0.51153846"
       d="m 345.375,540.48718 -0.10355,6.06066 1.25,3.875 -4.25,-0.625 -2.77145,-2.68566 2.64645,3.31066 4.5,1 -2.875,3.25 -1.27145,0.56434 -1.5,-0.5 1.875,1 1.52145,-0.68934 2.75,-3.5 1.25,3.625 -0.0215,1.43934 -0.75,1.625 1.5,-1.875 -0.22855,-1.31434 -0.875,-3.375 3.5,2 2.125,2.125 -1.75,-2.75 -3.25,-1.875 4.47855,-0.68566 3.125,0.25 -2.75,-0.75 -5.10355,0.43566 4.60355,-3.31066 2,-3.25 -2.5,2.875 -4.60355,3.68566 -1.625,-3.25 -0.52145,-4.43566 -0.375,-2.25 5e-5,0 z"
       id="path4504"
       sodipodi:nodetypes="ccccccccccccccccccccccccccccccccccc"
       inkscape:export-xdpi="135.70589"
       inkscape:export-ydpi="135.70589"
       inkscape:export-filename="/media/sda2/zoombeer/path4502.png" />
    <path
       sodipodi:nodetypes="cscccccccccccccccccccccaccccccccc"
       id="path4508"
       d="m 412.86647,548.83577 c 4.63204,6.04979 33.89482,5.35069 38.17253,-1.02923 2.01857,-3.01054 2.77969,-4.79946 2.89652,-8.27893 1.31948,-2.96474 2.19975,-5.92531 3.19441,-15.16269 1.452,-3.97797 1.19296,-7.49092 0.91108,-11.68169 l 0.58987,-0.25368 0.0482,-2.46203 c -1.93411,-3.34256 -7.69532,-3.87522 -10.60546,-2.07521 l -0.47067,2.59605 0.45912,0.46474 c -0.59169,3.66238 -1.77471,7.91314 -0.84269,11.98517 -1.10497,2.92635 -1.72432,4.22103 -1.72432,4.22103 -2.01653,-2.38317 -5.13258,-4.94638 -7.32321,-4.8865 -1.40845,-0.85866 -2.73817,-1.55724 -5.45823,-1.83542 -2.31488,0.10921 -4.49191,0.45715 -5.38117,1.59695 -2.20176,0.4523 -5.80325,2.25897 -7.21704,3.28563 -1.01151,-1.6271 -0.68487,-1.45396 -1.05971,-2.05616 1.03502,-2.73687 0.82381,-4.35455 -0.21248,-9.18885 l 0.55074,-0.5831 -0.26395,-3.10685 c -4.98238,-2.1518 -8.75565,-0.22284 -11.96579,3.60666 l 0.75021,2.49717 0.75935,0.0831 c 0.86111,2.5557 1.80651,7.03988 2.28963,10.63318 0.51989,3.86679 -0.5959,6.13243 0.64587,11.68692 l -1.25706,-0.39221 1.04103,3.1875 -1.65481,0.66844 1.61556,2.03847 -1.74321,0.44747 2.14588,1.64071 -0.63834,1.15458 1.74814,1.19878 z"
       style="fill:#000000;fill-opacity:1;stroke:none" />
    <path
       style="fill:#4b665c;fill-opacity:1;stroke:none"
       d="m 425.82473,523.523 c 0.15605,-0.29463 0.0171,-0.46425 1.56597,-0.75888 -0.69171,3.54558 0.92742,12.89 2.20527,15.13325 0.23822,0.4182 -1.8267,0.41248 -1.8267,0.41248 -1.27375,-3.97896 -1.60435,-10.34111 -1.94454,-14.78685 z"
       id="path3658"
       sodipodi:nodetypes="ccscc" />
    <path
       style="fill:#ffffff;fill-opacity:1;stroke:none"
       d="m 429.77703,537.03493 c -1.10483,-2.84123 -1.83036,-9.80002 -1.77563,-13.88335 1.86049,-1.53386 3.11534,-1.74478 5.51399,-1.52491 0.11395,3.96713 0.129,10.26749 -1.44996,14.88089 l -2.2884,0.52737 z"
       id="path3650"
       sodipodi:nodetypes="ccccc" />
    <path
       style="fill:#4b665c;fill-opacity:1;stroke:none"
       d="m 413.72771,548.78085 c 5.18136,4.40182 31.06404,4.1253 36.36848,-0.85646 2.64211,-2.48138 3.00011,-6.28345 2.66082,-9.45744 2.61584,-3.90755 2.95871,-15.39839 2.95871,-15.39839 0,0 1.38569,-6.40786 1.10381,-10.59863 -2.44001,-2.11301 -5.04433,-2.76409 -7.32598,-1.33368 -0.59169,3.66238 -1.90982,7.72999 -0.9778,11.80202 -0.55249,1.46317 -1.87421,4.80078 -2.52749,5.96063 -0.16332,0.28996 -1.26819,5.01515 -1.57408,6.17249 -0.30589,1.15733 0.79739,1.78419 0.1212,4.08674 -0.47302,-3.25612 -1.24571,-3.21469 -1.46995,-2.20233 -0.22423,1.01235 -1.47176,1.58679 -1.47176,1.58679 0,0 0.51656,-0.76493 0.61632,-1.79565 0.0997,-1.11911 1.2411,-1.97368 1.34163,-3.3904 0.10053,-1.41672 0.57444,-3.52816 0.57675,-4.68617 -0.42036,-2.62082 -1.13902,-3.05401 -2.71939,-3.72176 0.0951,1.31851 -1.27573,12.20121 -3.00861,14.32502 0,0 -7.31634,0.68609 -7.31634,0.68609 0,0 -2.22328,-0.60931 -3.49613,-0.44756 -2.32335,-5.21478 -2.35992,-13.35018 -2.67783,-15.66209 -1.7938,1.12381 -2.53658,1.05099 -4.07215,2.8082 -0.0225,-0.15756 1.51938,4.702 0.88193,7.21508 0.43308,0.88419 0.9594,4.39029 0.9594,4.39029 0,0 -1.13709,-2.1504 -1.28018,-2.51072 -0.14308,-0.36031 -2.07549,1.7804 -2.15555,1.54173 -0.0801,-0.23867 1.2503,-2.61366 1.21853,-2.85027 -0.17507,-0.95639 0.0453,-2.95486 0.0471,-3.30899 0.007,-1.41653 -0.98597,-4.14143 -1.07996,-4.29596 -0.37594,-0.6181 -1.24107,-2.61019 -1.78764,-2.98638 1.03502,-2.73687 1.38865,-4.93369 0.35243,-9.76799 -2.09999,-1.22496 -4.97412,0.0952 -8.11506,2.03147 0.86111,2.5557 1.605,6.68188 2.22923,10.08325 0.76886,4.18944 -0.4227,10.20187 0.56192,12.45653 -0.11599,0.43525 -1.05671,1.09666 -1.74858,0.55087 0.0595,0.51488 1.34005,2.34161 1.51243,2.89781 0.17239,0.5562 -2.08926,0.15122 -1.86644,0.71045 0.22282,0.55923 2.22298,1.50814 2.43373,2.03211 0.21075,0.52397 -2.47279,-0.21669 -2.33661,0.23373 0.13617,0.45042 2.87108,1.07546 2.87018,1.41403 -9.1e-4,0.33857 -1.5886,0.78842 -1.78906,0.97685 -0.20048,0.18843 2.44463,1.30869 1.98206,1.30869 l -10e-6,0 0,0 -1e-5,0 0,0 -10e-6,0 0,0 -1e-5,0 0,0 -10e-6,0 0,0 -1e-5,0 0,0 0,0 -10e-6,0 0,0 0,0 0,0 -10e-6,0 0,0 0,0 0,0 -1e-5,0 0,0 0,0 2e-5,0 z"
       id="path4506"
       sodipodi:nodetypes="cscccccccccccccccccccccccccscccscccccccccccccccccccccccccccccccccc" />
    <path
       style="fill:#4b665c;stroke:none;stroke-width:1px;stroke-linecap:butt;stroke-linejoin:miter;stroke-opacity:1;fill-opacity:1"
       d="m 408.5,515.77885 c 3.29163,-1.55284 5.64529,-2.94404 10,-2.58333 l 0.005,-2.54882 c -3.0455,-0.18863 -5.69968,-1.32605 -10.46043,3.41667 l 0.45543,1.71548 z"
       id="path2874"
       sodipodi:nodetypes="ccccc" />
    <path
       style="fill:#4b665c;stroke:none;stroke-width:1px;stroke-linecap:butt;stroke-linejoin:miter;stroke-opacity:1;fill-opacity:1"
       d="m 448.33333,510.15385 0.33334,-2.08333 c 2.23603,-0.8668 7.20228,-1.44698 9.33333,2.125 l 0.0833,2.04166 c -2.88974,-2.44429 -6.08334,-3.41266 -9.75,-2.08333 l 3e-5,0 z"
       id="path3648"
       sodipodi:nodetypes="cccccc" />
    <path
       sodipodi:nodetypes="ccscc"
       id="path3660"
       d="m 440.5025,524.41046 c -0.39021,-0.60072 -0.31959,-1.1668 -1.80081,-1.29994 0.13376,3.48666 -1.48013,13.07393 -3.14239,15.31718 -0.30988,0.4182 2.04942,0.16605 2.04942,0.16605 1.56767,-3.97538 2.49057,-9.54648 2.89378,-14.18329 z"
       style="fill:#4b665c;fill-opacity:1;stroke:none" />
    <path
       sodipodi:nodetypes="ccccc"
       id="path3669"
       d="m 432.37691,536.81353 c 1.87178,-3.72512 1.92657,-10.37141 1.7456,-14.39582 1.80814,-0.44582 3.23945,0.35612 3.98907,0.97672 0.11395,3.96713 -1.3549,10.93713 -2.75704,13.66491 -0.498,-0.30684 -1.91921,-0.62184 -2.97763,-0.24581 z"
       style="fill:#ffffff;fill-opacity:1;stroke:none" />
    <path
       style="fill:#000000;fill-opacity:1;stroke:none"
       d="m 432.06917,532.76174 c 0.001,0.95686 -1.55942,0.48381 -1.02196,-0.31236 0.28241,-0.45632 1.04283,-0.22428 1.02196,0.31236 z"
       id="path3677" />
    <path
       style="fill:#000000;fill-opacity:1;stroke:none"
       d="m 432.55764,529.20999 c 0.001,1.03458 -1.68606,0.52312 -1.10495,-0.33772 0.30536,-0.49337 1.12752,-0.24248 1.10495,0.33772 z"
       id="path3679" />
    <path
       style="fill:#000000;fill-opacity:1;stroke:none"
       d="m 432.76169,522.58166 c -0.36577,1.02916 -2.34427,-0.37177 -0.52304,-0.36951 0.29751,0.0318 0.52856,0.19611 0.52304,0.36951 z"
       id="path3685" />
    <path
       style="fill:#000000;fill-opacity:1;stroke:none"
       d="m 432.7805,525.08969 c 0.002,0.78055 -1.90814,0.39465 -1.25049,-0.25483 0.34558,-0.37223 1.27605,-0.18295 1.25049,0.25483 z"
       id="path3687" />
    <path
       style="fill:#2d3d38;stroke:none;stroke-width:1px;stroke-linecap:butt;stroke-linejoin:miter;stroke-opacity:1;fill-opacity:1"
       d="m 410.16667,516.36218 3.91666,-1.83333 -3.08333,2.25 1.33333,4.75 2.16667,1 -1.83333,1.25 2.25,0.75 -2,1 1.58333,4.08333 -0.91667,4.5 2.58334,2.91667 -1.91667,1.66667 0.75,5.5 2.08333,5.41666 -3.66666,-2.83333 c 0,0 -0.91667,-3 -0.91667,-3.33333 0,-0.33334 1,-4.5 1,-4.5 l -0.91667,-2.25 0.41667,-7.08334 -1.16667,-7.75 -1.66666,-5.5 z"
       id="path3722" />
    <path
       style="fill:#2d3d38;stroke:none;stroke-width:1px;stroke-linecap:butt;stroke-linejoin:miter;stroke-opacity:1;fill-opacity:1"
       d="m 416.04395,514.07714 1.67938,0.61872 0.44194,3.62393 -1.14905,5.74524 2.82843,5.21491 0.0884,5.03814 -1.06066,3.35875 0.26517,-6.36396 -0.53033,-2.82842 -1.94455,-0.44195 1.5026,-0.53033 -2.12132,-3.53553 1.41422,-6.89429 -0.44195,-1.76777 -0.97227,-1.23744 z"
       id="path3724" />
    <path
       style="fill:#2d3d38;stroke:none;stroke-width:1px;stroke-linecap:butt;stroke-linejoin:miter;stroke-opacity:1;fill-opacity:1"
       d="m 452.72512,511.16033 -2.65165,0.0884 -1.32583,6.71751 0.61872,5.12653 -3.44715,7.42462 -1.14904,5.03813 0.53033,3.27037 0,-3.18198 1.14904,-4.41942 1.591,-0.17677 -1.32583,-0.88389 1.06066,-1.41421 3.35876,0.0884 -2.82843,-0.88388 1.23744,-2.47488 3.62392,-1.23744 -3.18198,-1.06066 -0.44194,-5.21491 0.97227,-4.5078 0.88388,-1.14905 1.32583,-1.14905 z"
       id="path3726" />
    <path
       style="fill:#2d3d38;stroke:none;stroke-width:1px;stroke-linecap:butt;stroke-linejoin:miter;stroke-opacity:1;fill-opacity:1"
       d="m 454.49288,511.51388 c 0,0 1.85616,0.70711 1.85616,1.06066 0,0.35356 -0.35355,5.3033 -0.44194,5.65686 -0.0884,0.35355 -0.70711,3.8007 -0.70711,4.24264 0,0.44194 -0.53033,7.86656 -0.53033,7.86656 l -1.41421,6.27557 -1.23744,1.59099 0.26517,4.15426 -2.38649,4.68458 -4.24264,2.20971 3.88909,-3.18198 c 0,0 -3.8007,-1.32583 -3.44715,-1.50261 0.35355,-0.17677 5.03814,-1.76776 5.03814,-1.76776 l -2.03293,-3.44715 3.71231,-3.18198 1.5026,-6.54074 -0.88389,-2.03293 0.97228,0 0.35355,-3.53553 -1.94454,-0.88389 1.76776,-0.79549 0.70711,-3.53553 -2.12132,-1.41422 2.38648,0.0884 0.17678,-3.71231 -1.23744,-2.2981 z"
       id="path3728" />
    <path
       style="fill:#2d3d38;stroke:none;stroke-width:1px;stroke-linecap:butt;stroke-linejoin:miter;stroke-opacity:1;fill-opacity:1"
       d="m 410.91743,512.22099 -2.2981,1.76777 0.17678,1.14904 1.94454,-0.88388 -1.23743,0.0884 1.41421,-2.12132 z"
       id="path3794" />
    <path
       style="fill:#2d3d38;stroke:none;stroke-width:1px;stroke-linecap:butt;stroke-linejoin:miter;stroke-opacity:1;fill-opacity:1"
       d="m 453.16706,507.80157 -4.06586,0.44194 -0.35356,1.23744 4.24264,-0.0884 c 0,0 -3.97747,-0.7071 -3.53553,-0.7071 0.44194,0 3.8007,-0.70711 3.71231,-0.88389 z"
       id="path3796" />
    <path
       style="fill:#a5a98a;stroke:none;stroke-width:1px;stroke-linecap:butt;stroke-linejoin:miter;stroke-opacity:1;fill-opacity:1"
       d="m 428.24155,523.40211 0.39774,6.143 0.0442,-5.08233 1.01646,-0.22098 0.48614,4.552 0.22097,-4.64038 2.34229,0.13258 -0.0884,-0.7513 -1.94454,-0.35356 0.22097,-1.19324 -2.69584,1.41421 z"
       id="path3798" />
    <path
       style="fill:#a5a98a;stroke:none;stroke-width:1px;stroke-linecap:butt;stroke-linejoin:miter;stroke-opacity:1;fill-opacity:1"
       d="m 434.38454,522.65081 3.40295,0.88389 -0.35356,4.37522 -0.17677,-3.66812 -1.85616,7.11527 0.70711,-7.42463 -1.14905,0.92808 -0.57452,-2.20971 z"
       id="path3800" />
    <path
       style="fill:url(#linearGradient3820);fill-opacity:1;stroke:none"
       d="m 420.33334,526.02885 2.08333,11.58333 19.83333,0.83334 2.91667,-11.41667 c -7.26493,-7.55072 -16.45741,-7.44773 -24.83333,-1 z"
       id="path3804"
       sodipodi:nodetypes="ccccc" />
    <g
       id="g3822">
      <path
         id="path3675"
         d="m 432.22916,534.22675 c 9.5e-4,0.58874 -0.95948,0.29768 -0.62879,-0.19219 0.17377,-0.28076 0.64164,-0.13799 0.62879,0.19219 z"
         style="fill:#000000;fill-opacity:1;stroke:none" />
      <path
         sodipodi:nodetypes="csssc"
         id="path4510"
         d="m 440.1219,542.38355 c 0,5.33717 -2.6486,9.8995 -7.66033,9.8995 -5.01173,0 -7.89603,-4.32663 -7.89603,-9.6638 0,-5.33716 2.6486,-8.72098 7.66033,-8.72098 5.01173,0 7.89603,3.14812 7.89603,8.48528 z"
         style="fill:#afaa6f;fill-opacity:1;stroke:none" />
      <path
         id="path3720"
         d="m 433.625,542.29968 -3.6875,5.3125 1.3125,5.1875 2.6875,-0.0625 4.0625,-3.1875 1.5,-3.6875 -0.0625,-4.6875 -3.0625,-1.375 -2.75,2.5 z"
         style="fill:#b46850;fill-opacity:1;stroke:#000000;stroke-width:1px;stroke-linecap:butt;stroke-linejoin:miter;stroke-opacity:1" />
      <path
         id="path4515"
         d="m 425.50859,531.3556 0.75,3.59375 -0.90625,-1.25 0.25,2.25 -2,-2.65625 0.15625,3.5625 -1.09375,-0.25 1.9375,1.9375 -2.21875,1.84375 1.1875,0.59375 -1.9375,2.1875 2.9375,-1.34375 -2.90625,2.96875 1.59375,-0.1875 -0.84375,2.1875 1.21875,-0.15625 -0.21875,2.84375 1.1875,-0.375 0.6875,3.25 1.375,-1.25 0.40625,3.40625 1.71875,-0.34375 -0.15625,1.3125 1.59375,-1.53125 0.34375,1.5 1.3125,-2.03125 1.1875,1.96875 0.6875,-1.40625 0.96875,1.96875 1.0625,-2.90625 0.875,2.125 0.90625,-3.75 1.0625,1.0625 0.3125,-2.875 0.90625,0.8125 -0.15625,-3.21875 0.6875,0.6875 -0.0312,-2.9375 1.3125,0.3125 -0.90625,-1.96875 1,-1.09375 -1.65625,-1.15625 0.65625,-0.5625 -1.5,-1.28125 3.90625,-1.09375 -5.65625,-1.25 1.25,-1.8125 -2.25,0.0625 1.15625,-1.5625 -2.75,0.40625 0.84375,-1.40625 -4.34375,2.75 -0.3125,-1.6875 -1.1875,2.75 -0.5,-1.40625 -0.8125,1.40625 -0.59375,-2.0625 -0.59375,0.8125 -0.5625,-1.3125 -1.34375,-2.4375 z m 11.0625,9.375 -0.0625,0.5 0.21875,0.4375 0.75,-0.875 0.0625,1.5625 0.875,-0.84375 0.75,1.875 -1,0.84375 0.875,0.5 -0.21875,1.15625 -1.1875,0.0625 0.34375,1.5 -0.96875,-1.03125 0.0312,2.21875 -0.4375,-0.90625 -0.0625,1.90625 -1.71875,0.96875 -1.6875,0.0625 -1.03125,1.625 0.5625,-2.6875 -0.625,-1.46875 0.53125,0.40625 -0.59375,-2.375 0.1875,-0.375 0.625,-0.34375 0.34375,-1.3125 1.5,0.53125 -0.125,-1.6875 0.78125,1.28125 0.3125,-2.4375 0.46875,1.125 0.5,-2.21875 z"
         style="fill:#000000;fill-opacity:1;stroke:none" />
      <path
         id="path4519"
         d="m 425.42526,551.48861 2.875,-2.16666 1.125,-3.66667 -1.58334,3.41667 -2.41666,2.41666 z"
         style="fill:#784421;fill-opacity:1;stroke:none" />
      <path
         id="path4525"
         d="m 430.05026,546.36361 -0.20834,3.08334 -2.70833,1.91666 3.33333,-1.54166 -0.41666,-3.45834 z"
         style="fill:#784421;fill-opacity:1;stroke:none" />
      <path
         id="path4527"
         d="m 423.63359,549.07195 2.04167,-2.375 3.41666,-1.20834 c 0,0 -3.25,-0.0833 -3.41666,0.0417 -0.16667,0.125 -2.08334,3.625 -2.04167,3.54167 z"
         style="fill:#784421;fill-opacity:1;stroke:none" />
      <path
         id="path4529"
         d="m 423.00859,546.11361 c 0,0 2.20833,-2.83333 2.375,-2.83333 0.16667,0 5.25,0.0417 5.25,0.0417 l -5.16667,-0.625 -2.45833,3.41663 z"
         style="fill:#784421;fill-opacity:1;stroke:none" />
      <path
         id="path4531"
         d="m 429.55026,541.48861 -0.625,-2.45833 c 0,0 0.5,-3.04167 0.5,-2.875 0,0.16667 -0.0833,2.58333 -0.0833,2.58333 l 0.20834,2.75 z"
         style="fill:#784421;fill-opacity:1;stroke:none" />
      <path
         id="path4535"
         d="m 431.63359,541.86361 0.20833,-5.91666 2.45834,-1.625 -1.91667,2 -0.75,5.54166 z"
         style="fill:#784421;fill-opacity:1;stroke:none" />
      <path
         id="path4537"
         d="m 432.13359,542.36361 0.83333,-3.83333 c 0,0 1.04167,-1.70833 1.20834,-1.75 0.16666,-0.0417 2.16666,-2.04167 2.16666,-2.04167 l -2.04166,2.58334 -0.91667,1.66666 -1.25,3.375 z"
         style="fill:#784421;fill-opacity:1;stroke:none" />
      <path
         id="path4539"
         d="m 432.30026,543.40528 1.83333,-3.625 1.875,-3.08333 1.91667,-1.29167 -1.70834,1.41667 -1.83333,3.25 -2.08333,3.54166 0,-0.20833 z"
         style="fill:#784421;fill-opacity:1;stroke:none" />
      <path
         id="path3802"
         d="m 432.97032,545.67598 0.66291,0.92808 -1.10485,0.26516 1.59099,0.0442 -0.61872,2.12132 -0.61872,-1.10486 0.66292,2.16552 0.88388,-2.60746 1.5026,1.76777 0.53033,-1.67938 -0.61872,0.88388 -1.28163,-1.19324 0.48614,-0.92808 1.76777,0.7513 0.26516,-1.14905 0.48614,0.61872 c 0,0 -0.44195,-1.01646 -0.22097,-1.06066 0.22097,-0.0442 1.4584,-0.30936 1.4584,-0.30936 l -0.0442,-0.39774 -1.72357,0.53033 0.83969,-1.45841 0.7071,-0.44194 0,-0.97228 -0.26516,-0.35355 -1.14905,0.83969 0.30936,0.26516 0.88388,-0.61871 -0.17678,0.7071 -0.7513,0.39775 -0.7513,1.63519 0.13259,0.66291 -0.17678,0.61872 -1.45841,-0.53033 1.06066,-1.10486 0.0884,-1.37002 c 0,0 -0.48614,-0.13258 -0.44194,0.0442 0.0442,0.17677 0.0442,1.28163 0.0442,1.28163 l -1.06066,1.06066 -0.35355,0.66291 -0.66291,-0.26516 0.88388,-1.14905 -1.37002,-0.7955 0.92808,0.92808 -0.61872,0.70711 -0.70711,-0.39775 z"
         style="fill:#800000;fill-opacity:1;stroke:none" />
    </g>
  </g>
</svg>
