{
    "asset" : {
        "generator" : "Khronos glTF Blender I/O v0.9.36",
        "version" : "2.0"
    },
    "scene" : 0,
    "scenes" : [
        {
            "name" : "Scene",
            "nodes" : [
                0
            ]
        }
    ],
    "nodes" : [
        {
            "mesh" : 0,
            "name" : "Silla",
            "scale" : [
                0.10000000149011612,
                0.10000000149011612,
                0.10000000149011612
            ],
            "translation" : [
                0,
                0.39999985694885254,
                0
            ]
        }
    ],
    "materials" : [
        {
            "doubleSided" : true,
            "name" : "Material.001",
            "pbrMetallicRoughness" : {
                "baseColorTexture" : {
                    "index" : 0,
                    "texCoord" : 0
                },
                "metallicFactor" : 0.08256880939006805,
                "roughnessFactor" : 0.9128440618515015
            }
        }
    ],
    "meshes" : [
        {
            "name" : "CU",
            "primitives" : [
                {
                    "attributes" : {
                        "POSITION" : 0,
                        "NORMAL" : 1,
                        "TEXCOORD_0" : 2
                    },
                    "indices" : 3,
                    "material" : 0
                }
            ]
        }
    ],
    "textures" : [
        {
            "source" : 0
        }
    ],
    "images" : [
        {
            "mimeType" : "image/png",
            "name" : "cu2_5",
            "uri" : "cu2_5.png"
        }
    ],
    "accessors" : [
        {
            "bufferView" : 0,
            "componentType" : 5126,
            "count" : 1615,
            "max" : [
                2.6061458587646484,
                6.000002861022949,
                2.665253162384033
            ],
            "min" : [
                -2.6061458587646484,
                -4,
                -2.4015495777130127
            ],
            "type" : "VEC3"
        },
        {
            "bufferView" : 1,
            "componentType" : 5126,
            "count" : 1615,
            "type" : "VEC3"
        },
        {
            "bufferView" : 2,
            "componentType" : 5126,
            "count" : 1615,
            "type" : "VEC2"
        },
        {
            "bufferView" : 3,
            "componentType" : 5123,
            "count" : 2796,
            "type" : "SCALAR"
        }
    ],
    "bufferViews" : [
        {
            "buffer" : 0,
            "byteLength" : 19380,
            "byteOffset" : 0
        },
        {
            "buffer" : 0,
            "byteLength" : 19380,
            "byteOffset" : 19380
        },
        {
            "buffer" : 0,
            "byteLength" : 12920,
            "byteOffset" : 38760
        },
        {
            "buffer" : 0,
            "byteLength" : 5592,
            "byteOffset" : 51680
        }
    ],
    "buffers" : [
        {
            "byteLength" : 57272,
            "uri" : "silla2.bin"
        }
    ]
}
