{
    "asset" : {
        "generator" : "Khronos glTF Blender I/O v0.9.36",
        "version" : "2.0"
    },
    "scene" : 0,
    "scenes" : [
        {
            "name" : "Scene",
            "nodes" : [
                0
            ]
        }
    ],
    "nodes" : [
        {
            "mesh" : 0,
            "name" : "Sphere.010",
            "scale" : [
                -0.00500000175088644,
                0.00500000175088644,
                0.004999998956918716
            ]
        }
    ],
    "materials" : [
        {
            "doubleSided" : true,
            "name" : "Material.002",
            "pbrMetallicRoughness" : {
                "baseColorTexture" : {
                    "index" : 0,
                    "texCoord" : 0
                },
                "metallicFactor" : 0,
                "roughnessFactor" : 1
            }
        }
    ],
    "meshes" : [
        {
            "name" : "Sphere.013",
            "primitives" : [
                {
                    "attributes" : {
                        "POSITION" : 0,
                        "NORMAL" : 1,
                        "TEXCOORD_0" : 2,
                        "TEXCOORD_1" : 3
                    },
                    "indices" : 4,
                    "material" : 0
                }
            ]
        }
    ],
    "textures" : [
        {
            "source" : 0
        }
    ],
    "images" : [
        {
            "mimeType" : "image/png",
            "name" : "tenis",
            "uri" : "tenis.png"
        }
    ],
    "accessors" : [
        {
            "bufferView" : 0,
            "componentType" : 5126,
            "count" : 499,
            "max" : [
                99.99996185302734,
                99.99996185302734,
                100.0000228881836
            ],
            "min" : [
                -99.99996185302734,
                -99.99996185302734,
                -100.0000228881836
            ],
            "type" : "VEC3"
        },
        {
            "bufferView" : 1,
            "componentType" : 5126,
            "count" : 499,
            "type" : "VEC3"
        },
        {
            "bufferView" : 2,
            "componentType" : 5126,
            "count" : 499,
            "type" : "VEC2"
        },
        {
            "bufferView" : 3,
            "componentType" : 5126,
            "count" : 499,
            "type" : "VEC2"
        },
        {
            "bufferView" : 4,
            "componentType" : 5123,
            "count" : 2376,
            "type" : "SCALAR"
        }
    ],
    "bufferViews" : [
        {
            "buffer" : 0,
            "byteLength" : 5988,
            "byteOffset" : 0
        },
        {
            "buffer" : 0,
            "byteLength" : 5988,
            "byteOffset" : 5988
        },
        {
            "buffer" : 0,
            "byteLength" : 3992,
            "byteOffset" : 11976
        },
        {
            "buffer" : 0,
            "byteLength" : 3992,
            "byteOffset" : 15968
        },
        {
            "buffer" : 0,
            "byteLength" : 4752,
            "byteOffset" : 19960
        }
    ],
    "buffers" : [
        {
            "byteLength" : 24712,
            "uri" : "tenis.bin"
        }
    ]
}
