{
    "asset" : {
        "generator" : "Khronos glTF Blender I/O v0.9.36",
        "version" : "2.0"
    },
    "scene" : 0,
    "scenes" : [
        {
            "name" : "Scene",
            "nodes" : [
                0
            ]
        }
    ],
    "nodes" : [
        {
            "mesh" : 0,
            "name" : "CPU",
            "rotation" : [
                0,
                -0.7071065902709961,
                0,
                0.7071070671081543
            ]
        }
    ],
    "materials" : [
        {
            "doubleSided" : true,
            "name" : "Material.001",
            "pbrMetallicRoughness" : {
                "baseColorTexture" : {
                    "index" : 0,
                    "texCoord" : 0
                },
                "metallicFactor" : 0.3381817936897278,
                "roughnessFactor" : 0.4000000059604645
            }
        }
    ],
    "meshes" : [
        {
            "name" : "Cube.005",
            "primitives" : [
                {
                    "attributes" : {
                        "POSITION" : 0,
                        "NORMAL" : 1,
                        "TEXCOORD_0" : 2
                    },
                    "indices" : 3,
                    "material" : 0
                }
            ]
        }
    ],
    "textures" : [
        {
            "source" : 0
        }
    ],
    "images" : [
        {
            "mimeType" : "image/png",
            "name" : "Image_0",
            "uri" : "Image_0.png"
        }
    ],
    "accessors" : [
        {
            "bufferView" : 0,
            "componentType" : 5126,
            "count" : 880,
            "max" : [
                1.0000014305114746,
                1.0000007152557373,
                1.0000019073486328
            ],
            "min" : [
                -1.0000017881393433,
                -1.000001311302185,
                -1.0000008344650269
            ],
            "type" : "VEC3"
        },
        {
            "bufferView" : 1,
            "componentType" : 5126,
            "count" : 880,
            "type" : "VEC3"
        },
        {
            "bufferView" : 2,
            "componentType" : 5126,
            "count" : 880,
            "type" : "VEC2"
        },
        {
            "bufferView" : 3,
            "componentType" : 5123,
            "count" : 900,
            "type" : "SCALAR"
        }
    ],
    "bufferViews" : [
        {
            "buffer" : 0,
            "byteLength" : 10560,
            "byteOffset" : 0
        },
        {
            "buffer" : 0,
            "byteLength" : 10560,
            "byteOffset" : 10560
        },
        {
            "buffer" : 0,
            "byteLength" : 7040,
            "byteOffset" : 21120
        },
        {
            "buffer" : 0,
            "byteLength" : 1800,
            "byteOffset" : 28160
        }
    ],
    "buffers" : [
        {
            "byteLength" : 29960,
            "uri" : "ZCUBO.glb.bin"
        }
    ]
}
