{
    "asset" : {
        "generator" : "Khronos glTF Blender I/O v0.9.36",
        "version" : "2.0"
    },
    "scene" : 0,
    "scenes" : [
        {
            "name" : "Scene",
            "nodes" : [
                0
            ]
        }
    ],
    "nodes" : [
        {
            "mesh" : 0,
            "name" : "Chestnut",
            "translation" : [
                -6.454966068267822,
                0,
                0
            ]
        }
    ],
    "materials" : [
        {
            "doubleSided" : true,
            "name" : "Material.001",
            "pbrMetallicRoughness" : {
                "baseColorTexture" : {
                    "index" : 0,
                    "texCoord" : 0
                },
                "metallicFactor" : 0,
                "roughnessFactor" : 0.5
            }
        }
    ],
    "meshes" : [
        {
            "name" : "Chestnut",
            "primitives" : [
                {
                    "attributes" : {
                        "POSITION" : 0,
                        "NORMAL" : 1,
                        "TEXCOORD_0" : 2
                    },
                    "indices" : 3,
                    "material" : 0
                }
            ]
        }
    ],
    "textures" : [
        {
            "source" : 0
        }
    ],
    "images" : [
        {
            "mimeType" : "image/png",
            "name" : "Cas",
            "uri" : "Cas.png"
        }
    ],
    "accessors" : [
        {
            "bufferView" : 0,
            "componentType" : 5126,
            "count" : 939,
            "max" : [
                3.710239887237549,
                9.229485511779785,
                1.3386601209640503
            ],
            "min" : [
                -6.570603370666504,
                -1.0393829345703125,
                -3.912623405456543
            ],
            "type" : "VEC3"
        },
        {
            "bufferView" : 1,
            "componentType" : 5126,
            "count" : 939,
            "type" : "VEC3"
        },
        {
            "bufferView" : 2,
            "componentType" : 5126,
            "count" : 939,
            "type" : "VEC2"
        },
        {
            "bufferView" : 3,
            "componentType" : 5123,
            "count" : 2652,
            "type" : "SCALAR"
        }
    ],
    "bufferViews" : [
        {
            "buffer" : 0,
            "byteLength" : 11268,
            "byteOffset" : 0
        },
        {
            "buffer" : 0,
            "byteLength" : 11268,
            "byteOffset" : 11268
        },
        {
            "buffer" : 0,
            "byteLength" : 7512,
            "byteOffset" : 22536
        },
        {
            "buffer" : 0,
            "byteLength" : 5304,
            "byteOffset" : 30048
        }
    ],
    "buffers" : [
        {
            "byteLength" : 35352,
            "uri" : "casta\u00f1a.bin"
        }
    ]
}
