{
	"asset":{
		"generator":"Khronos glTF Blender I/O v4.0.44",
		"version":"2.0"
	},
	"scene":0,
	"scenes":[
		{
			"name":"Scene",
			"nodes":[
				0
			]
		}
	],
	"nodes":[
		{
			"mesh":0,
			"name":"cerebro",
			"translation":[
				0.01962199993431568,
				0.06131400167942047,
				-0.023924000561237335
			]
		}
	],
	"materials":[
		{
			"doubleSided":true,
			"name":"Cerebro.001",
			"pbrMetallicRoughness":{
				"baseColorTexture":{
					"index":0
				},
				"metallicFactor":0,
				"roughnessFactor":0.5
			}
		}
	],
	"meshes":[
		{
			"name":"cerebro",
			"primitives":[
				{
					"attributes":{
						"POSITION":0,
						"NORMAL":1,
						"TEXCOORD_0":2
					},
					"indices":3,
					"material":0
				}
			]
		}
	],
	"textures":[
		{
			"sampler":0,
			"source":0
		}
	],
	"images":[
		{
			"mimeType":"image/png",
			"name":"Cerebrotex",
			"uri":"Cerebrotex.png"
		}
	],
	"accessors":[
		{
			"bufferView":0,
			"componentType":5126,
			"count":6814,
			"max":[
				0.41327008605003357,
				0.46587419509887695,
				0.35347703099250793
			],
			"min":[
				-0.41278520226478577,
				-0.5301700830459595,
				-0.4425741136074066
			],
			"type":"VEC3"
		},
		{
			"bufferView":1,
			"componentType":5126,
			"count":6814,
			"type":"VEC3"
		},
		{
			"bufferView":2,
			"componentType":5126,
			"count":6814,
			"type":"VEC2"
		},
		{
			"bufferView":3,
			"componentType":5123,
			"count":39318,
			"type":"SCALAR"
		}
	],
	"bufferViews":[
		{
			"buffer":0,
			"byteLength":81768,
			"byteOffset":0,
			"target":34962
		},
		{
			"buffer":0,
			"byteLength":81768,
			"byteOffset":81768,
			"target":34962
		},
		{
			"buffer":0,
			"byteLength":54512,
			"byteOffset":163536,
			"target":34962
		},
		{
			"buffer":0,
			"byteLength":78636,
			"byteOffset":218048,
			"target":34963
		}
	],
	"samplers":[
		{
			"magFilter":9729,
			"minFilter":9987
		}
	],
	"buffers":[
		{
			"byteLength":296684,
			"uri":"cerebro.bin"
		}
	]
}
