{
	"asset":{
		"generator":"Khronos glTF Blender I/O v3.5.30",
		"version":"2.0"
	},
	"extensionsUsed":[
		"KHR_materials_specular",
		"KHR_materials_ior"
	],
	"scene":0,
	"scenes":[
		{
			"name":"Scene",
			"nodes":[
				0
			]
		}
	],
	"nodes":[
		{
			"mesh":0,
			"name":"Ainouit"
		}
	],
	"materials":[
		{
			"doubleSided":true,
			"extensions":{
				"KHR_materials_specular":{
					"specularColorFactor":[
						0,
						0,
						0
					]
				},
				"KHR_materials_ior":{
					"ior":1.4500000476837158
				}
			},
			"name":"Roboto",
			"pbrMetallicRoughness":{
				"baseColorTexture":{
					"index":0
				},
				"metallicFactor":0
			}
		}
	],
	"meshes":[
		{
			"name":"Ainouit",
			"primitives":[
				{
					"attributes":{
						"POSITION":0,
						"TEXCOORD_0":1,
						"TEXCOORD_1":2,
						"NORMAL":3
					},
					"indices":4,
					"material":0
				}
			]
		}
	],
	"textures":[
		{
			"sampler":0,
			"source":0
		}
	],
	"images":[
		{
			"mimeType":"image/png",
			"name":"roboto_unicolor",
			"uri":"roboto_unicolor.png"
		}
	],
	"accessors":[
		{
			"bufferView":0,
			"componentType":5126,
			"count":52917,
			"max":[
				0.5000550746917725,
				0.31516146659851074,
				0.6143907904624939
			],
			"min":[
				-0.4999396800994873,
				-0.3680018484592438,
				0.00015405220619868487
			],
			"type":"VEC3"
		},
		{
			"bufferView":1,
			"componentType":5126,
			"count":52917,
			"type":"VEC2"
		},
		{
			"bufferView":2,
			"componentType":5126,
			"count":52917,
			"type":"VEC2"
		},
		{
			"bufferView":3,
			"componentType":5126,
			"count":52917,
			"type":"VEC3"
		},
		{
			"bufferView":4,
			"componentType":5123,
			"count":113040,
			"type":"SCALAR"
		}
	],
	"bufferViews":[
		{
			"buffer":0,
			"byteLength":635004,
			"byteOffset":0,
			"target":34962
		},
		{
			"buffer":0,
			"byteLength":423336,
			"byteOffset":635004,
			"target":34962
		},
		{
			"buffer":0,
			"byteLength":423336,
			"byteOffset":1058340,
			"target":34962
		},
		{
			"buffer":0,
			"byteLength":635004,
			"byteOffset":1481676,
			"target":34962
		},
		{
			"buffer":0,
			"byteLength":226080,
			"byteOffset":2116680,
			"target":34963
		}
	],
	"samplers":[
		{
			"magFilter":9729,
			"minFilter":9987
		}
	],
	"buffers":[
		{
			"byteLength":2342760,
			"uri":"roboto.bin"
		}
	]
}
