{
    "asset" : {
        "generator" : "Khronos glTF Blender I/O v0.9.36",
        "version" : "2.0"
    },
    "scene" : 0,
    "scenes" : [
        {
            "name" : "Scene",
            "nodes" : [
                0
            ]
        }
    ],
    "nodes" : [
        {
            "mesh" : 0,
            "name" : "XYZ"
        }
    ],
    "materials" : [
        {
            "doubleSided" : true,
            "name" : "XYZ",
            "pbrMetallicRoughness" : {
                "baseColorTexture" : {
                    "index" : 0,
                    "texCoord" : 0
                },
                "metallicFactor" : 0,
                "roughnessFactor" : 0.5
            }
        }
    ],
    "meshes" : [
        {
            "name" : "XYZ",
            "primitives" : [
                {
                    "attributes" : {
                        "POSITION" : 0,
                        "NORMAL" : 1,
                        "TEXCOORD_0" : 2
                    },
                    "indices" : 3,
                    "material" : 0
                }
            ]
        }
    ],
    "textures" : [
        {
            "source" : 0
        }
    ],
    "images" : [
        {
            "mimeType" : "image/png",
            "name" : "XYZ",
            "uri" : "XYZ.png"
        }
    ],
    "accessors" : [
        {
            "bufferView" : 0,
            "componentType" : 5126,
            "count" : 2474,
            "max" : [
                0.5000001788139343,
                0.49999985098838806,
                0.5000001788139343
            ],
            "min" : [
                -0.4999998211860657,
                -0.5000001192092896,
                -0.4999998211860657
            ],
            "type" : "VEC3"
        },
        {
            "bufferView" : 1,
            "componentType" : 5126,
            "count" : 2474,
            "type" : "VEC3"
        },
        {
            "bufferView" : 2,
            "componentType" : 5126,
            "count" : 2474,
            "type" : "VEC2"
        },
        {
            "bufferView" : 3,
            "componentType" : 5123,
            "count" : 4020,
            "type" : "SCALAR"
        }
    ],
    "bufferViews" : [
        {
            "buffer" : 0,
            "byteLength" : 29688,
            "byteOffset" : 0
        },
        {
            "buffer" : 0,
            "byteLength" : 29688,
            "byteOffset" : 29688
        },
        {
            "buffer" : 0,
            "byteLength" : 19792,
            "byteOffset" : 59376
        },
        {
            "buffer" : 0,
            "byteLength" : 8040,
            "byteOffset" : 79168
        }
    ],
    "buffers" : [
        {
            "byteLength" : 87208,
            "uri" : "XYZ.bin"
        }
    ]
}
